<svg t="1757692778784" class="icon" viewBox="0 0 1024 1024" version="1.1" xmlns="http://www.w3.org/2000/svg" p-id="23681" width="24" height="24"><path fill="currentColor" d="M309.333333 341.333333a202.666667 202.666667 0 1 1 405.333334 0 202.666667 202.666667 0 0 1-405.333334 0zM512 202.666667a138.666667 138.666667 0 1 0 0 277.333333 138.666667 138.666667 0 0 0 0-277.333333zM512 629.333333a309.461333 309.461333 0 0 0-303.872 251.306667 32 32 0 0 1-62.890667-11.946667A373.461333 373.461333 0 0 1 512 565.333333a32 32 0 0 1 0 64zM608 640a117.333333 117.333333 0 0 1 234.666667 0v42.666667h32a21.333333 21.333333 0 0 1 21.333333 21.333333v170.666667a21.333333 21.333333 0 0 1-21.333333 21.333333h-298.666667a21.333333 21.333333 0 0 1-21.333333-21.333333v-170.666667a21.333333 21.333333 0 0 1 21.333333-21.333333h32v-42.666667z m170.666667 0a53.333333 53.333333 0 1 0-106.666667 0v42.666667h106.666667v-42.666667z" p-id="23682"></path></svg>