<svg t="1757326893338" class="icon" viewBox="0 0 1024 1024" version="1.1" xmlns="http://www.w3.org/2000/svg" p-id="5972" width="380" height="380"><path fill="currentColor" d="M91.428571 786.285714V237.714286q0-27.904 10.276572-53.851429 11.154286-28.16 32.566857-49.590857 21.430857-21.412571 49.590857-32.566857Q209.828571 91.428571 237.714286 91.428571h146.285714q27.904 0 53.851429 10.276572 28.16 11.154286 49.590857 32.566857 21.412571 21.430857 32.566857 49.590857Q530.285714 209.828571 530.285714 237.714286v548.571428q0 27.904-10.276571 53.851429-11.154286 28.16-32.566857 49.590857-21.430857 21.412571-49.590857 32.566857Q411.904 932.571429 384 932.571429h-146.285714q-27.904 0-53.851429-10.276572-28.16-11.154286-49.590857-32.566857-21.412571-21.430857-32.566857-49.590857Q91.428571 814.171429 91.428571 786.285714z m73.142858 0q0 30.299429 21.430857 51.712Q207.414857 859.428571 237.714286 859.428571h146.285714q30.299429 0 51.712-21.430857Q457.142857 816.585143 457.142857 786.285714V237.714286q0-30.299429-21.430857-51.712Q414.299429 164.571429 384 164.571429h-146.285714q-30.299429 0-51.712 21.430857Q164.571429 207.414857 164.571429 237.714286v548.571428z m420.571428-457.142857v-109.714286q0-53.028571 37.485714-90.514285Q660.114286 91.428571 713.142857 91.428571h109.714286q53.028571 0 90.514286 37.485715Q950.857143 166.4 950.857143 219.428571v109.714286q0 53.028571-37.485714 90.514286Q875.885714 457.142857 822.857143 457.142857h-109.714286q-53.028571 0-90.514286-37.485714Q585.142857 382.171429 585.142857 329.142857z m73.142857 0q0 22.729143 16.073143 38.784Q690.413714 384 713.142857 384h109.714286q22.729143 0 38.784-16.073143Q877.714286 351.872 877.714286 329.142857v-109.714286q0-22.729143-16.073143-38.784Q845.586286 164.571429 822.857143 164.571429h-109.714286q-22.729143 0-38.784 16.073142Q658.285714 196.699429 658.285714 219.428571v109.714286z m-73.142857 475.428572V621.714286q0-53.028571 37.485714-90.514286Q660.114286 493.714286 713.142857 493.714286h109.714286q53.028571 0 90.514286 37.485714Q950.857143 568.685714 950.857143 621.714286v182.857143q0 53.028571-37.485714 90.514285Q875.885714 932.571429 822.857143 932.571429h-109.714286q-53.028571 0-90.514286-37.485715Q585.142857 857.6 585.142857 804.571429z m73.142857 0q0 22.729143 16.073143 38.784Q690.413714 859.428571 713.142857 859.428571h109.714286q22.729143 0 38.784-16.073142Q877.714286 827.300571 877.714286 804.571429V621.714286q0-22.729143-16.073143-38.784Q845.586286 566.857143 822.857143 566.857143h-109.714286q-22.729143 0-38.784 16.073143Q658.285714 598.985143 658.285714 621.714286v182.857143z" p-id="5973"></path></svg>