<svg xmlns="http://www.w3.org/2000/svg" width="24" height="24" viewBox="0 0 24 24">
<path fill="currentColor" fill-rule="evenodd" d="m3.925 17.006 1.528-.95c.308.496.389 1.11.199 1.681L5.09 19.42l.237-.044c.44-.08.903-.162 1.299-.223.337-.053.784-.118 1.098-.118.459 0 .968.138 1.255.216l.077.02c.7.187 1.61.429 2.943.429 4.234 0 7.7-3.45 7.7-7.7a7.7 7.7 0 1 0-14.247 4.056zM2.917 20.25a.95.95 0 0 0 .882 1.25q.018 0 .036-.003c.252-.051 3.3-.662 3.89-.662.208 0 .492.076.868.176.739.197 1.833.489 3.407.489 5.225 0 9.5-4.253 9.5-9.5a9.5 9.5 0 1 0-17.576 5.006c.03.049.038.108.02.162z" clip-rule="evenodd"></path>
</svg>