<svg t="1756233044969" viewBox="0 0 1024 1024" version="1.1" xmlns="http://www.w3.org/2000/svg" p-id="4493" width="24" height="24"><path d="M942.08 864.1024h-309.248l308.8896-308.8384a100.6592 100.6592 0 0 0 0-142.1824l-295.936-295.936a100.5568 100.5568 0 0 0-142.1824 0l-412.5184 412.4672a100.608 100.608 0 0 0 0 142.1824l192.3072 192.3072H188.416a35.84 35.84 0 1 0 0 71.68H942.08a35.84 35.84 0 0 0 0-71.68z m-387.584-696.32a28.8768 28.8768 0 0 1 40.96 0L890.88 463.7696a28.9792 28.9792 0 0 1 0 40.96L750.2336 645.12 420.4032 301.6704z m-412.7232 412.5184l227.9424-227.9424 329.8304 343.6544-168.0896 168.0896H384.768l-242.9952-242.9952a28.8768 28.8768 0 0 1 0-40.8064z" fill="currentColor" p-id="4494"></path></svg>