<svg xmlns="http://www.w3.org/2000/svg" width="24" height="24" viewBox="0 0 24 24">
   <path fill="currentColor" d="M18.865 19.503a1.81 1.81 0 0 1-.737 1.649 1.82 1.82 0 0 1-1.8.196L12.2 19.546a.5.5 0 0 0-.4 0l-4.127 1.802a1.82 1.82 0 0 1-1.801-.196 1.81 1.81 0 0 1-.737-1.65l.452-4.384a.5.5 0 0 0-.127-.386l-2.994-3.32a1.81 1.81 0 0 1-.377-1.77c.2-.615.713-1.077 1.347-1.213l4.404-.945a.5.5 0 0 0 .326-.235l2.265-3.853a1.82 1.82 0 0 1 3.138 0l2.265 3.853a.5.5 0 0 0 .326.235l4.404.945a1.808 1.808 0 0 1 .97 2.984l-2.994 3.319a.5.5 0 0 0-.127.386zm-1.662-5.977 2.994-3.32q.004-.004.003-.007-.001-.006-.013-.01l-4.404-.945a2.3 2.3 0 0 1-1.5-1.083l-2.266-3.853Q12.014 4.302 12 4.3q-.015.002-.017.008L9.718 8.161a2.3 2.3 0 0 1-1.5 1.083l-4.405.945q-.012.004-.013.01 0 .003.003.008l2.994 3.32a2.3 2.3 0 0 1 .58 1.776l-.452 4.384q-.001.001.005.01l.01.003h.002q.006 0 .01-.002l4.128-1.801a2.3 2.3 0 0 1 1.84 0l4.127 1.801.012.002.01-.004q.008-.008.006-.009l-.452-4.384a2.3 2.3 0 0 1 .58-1.777"></path><path fill="currentColor" d="M18.865 19.503a1.81 1.81 0 0 1-.737 1.649 1.82 1.82 0 0 1-1.8.196L12.2 19.546a.5.5 0 0 0-.4 0l-4.127 1.802a1.82 1.82 0 0 1-1.801-.196 1.81 1.81 0 0 1-.737-1.65l.452-4.384a.5.5 0 0 0-.127-.386l-2.994-3.32a1.81 1.81 0 0 1-.377-1.77c.2-.615.713-1.077 1.347-1.213l4.404-.945a.5.5 0 0 0 .326-.235l2.265-3.853a1.82 1.82 0 0 1 3.138 0l2.265 3.853a.5.5 0 0 0 .326.235l4.404.945a1.808 1.808 0 0 1 .97 2.984l-2.994 3.319a.5.5 0 0 0-.127.386zm-1.662-5.977 2.994-3.32q.004-.004.003-.007-.001-.006-.013-.01l-4.404-.945a2.3 2.3 0 0 1-1.5-1.083l-2.266-3.853Q12.014 4.302 12 4.3q-.015.002-.017.008L9.718 8.161a2.3 2.3 0 0 1-1.5 1.083l-4.405.945q-.012.004-.013.01 0 .003.003.008l2.994 3.32a2.3 2.3 0 0 1 .58 1.776l-.452 4.384q-.001.001.005.01l.01.003h.002q.006 0 .01-.002l4.128-1.801a2.3 2.3 0 0 1 1.84 0l4.127 1.801.012.002.01-.004q.008-.008.006-.009l-.452-4.384a2.3 2.3 0 0 1 .58-1.777"></path>
</svg>