<svg xmlns="http://www.w3.org/2000/svg" width="24" height="24" viewBox="0 0 20 20">
  <path fill="currentColor" d="M8.125 2.5h3.75a.625.625 0 1 1 0 1.25h-3.75a.625.625 0 1 1 0-1.25M8.125 7.5a.625.625 0 0 0-.625.625v6.25a.625.625 0 1 0 1.25 0v-6.25a.625.625 0 0 0-.625-.625M11.25 8.125a.625.625 0 1 1 1.25 0v6.25a.625.625 0 1 1-1.25 0z"/>
  <path fill="currentColor" d="M16.875 5a.625.625 0 1 1 0 1.25h-1.042v7.917A3.333 3.333 0 0 1 12.5 17.5h-5a3.333 3.333 0 0 1-3.333-3.333V6.25H3.125a.625.625 0 1 1 0-1.25zM5.417 6.25v7.917c0 1.15.932 2.083 2.083 2.083h5c1.15 0 2.083-.933 2.083-2.083V6.25z"/>
</svg>
