<svg t="1756620391140" class="icon" viewBox="0 0 1024 1024" version="1.1" xmlns="http://www.w3.org/2000/svg" width="20" height="20"><path fill="currentColor" d="M145.984 911.488a73.216 73.216 0 0 1-73.984-73.984V567.616c0-16.512 20.736-58.304 60.992-64.512l0.64-316.608a74.88 74.88 0 0 1 73.856-73.984h609.024c40.704 0 73.92 33.216 73.92 73.984V502.4c37.76 6.272 61.568 46.144 61.568 65.216v269.888c0 35.584-28.352 73.984-73.984 73.984H145.92z m5.76-75.84l717.888 0.768 0.768-46.08V577.92l-164.096-0.768-0.768 46.08c0 35.84-31.936 65.088-71.168 65.088H388.352c-39.296 0-71.232-29.184-71.232-65.088v-45.312l-165.248-0.768-0.128 258.56z m62.144-334.336l64.384 0.64 46.464 0.064c50.24 0.448 73.6 44.672 73.6 74.432v36.48l226.176 0.704 0.704-37.12c0-30.464 26.816-74.496 75.136-74.496h108.544l0.32-314.496-594.56-0.768-0.768 314.56z"></path></svg>