<svg xmlns="http://www.w3.org/2000/svg" width="16" height="16" viewBox="0 0 16 16">
  <path d="M4.26586 8.91693L10.6231 2.55968C11.3391 1.84371 12.4999 1.84371 13.2158 2.55968C13.9318 3.27564 13.9318 4.43644 13.2158 5.1524L6.86853 11.4997C6.67116 11.6971 6.40959 11.8171 6.13127 11.8381L4.66242 11.9488C4.20348 11.9834 3.8034 11.6395 3.7688 11.1805C3.76487 11.1284 3.76585 11.0761 3.77172 11.0242L3.93153 9.61081C3.96121 9.34833 4.07908 9.1037 4.26586 8.91693ZM6.0561 10.8409C6.09586 10.8379 6.13322 10.8208 6.16142 10.7926L12.5087 4.44529C12.8342 4.11986 12.8342 3.59222 12.5087 3.26678C12.1833 2.94135 11.6556 2.94135 11.3302 3.26678L4.97296 9.62403C4.94628 9.65071 4.92944 9.68566 4.9252 9.72316L4.78801 10.9365L6.0561 10.8409Z" fill="currentColor"/>
  <path d="M3.1665 13C2.89036 13 2.6665 13.2238 2.6665 13.5C2.6665 13.7761 2.89036 14 3.1665 14H12.8332C13.1093 14 13.3332 13.7761 13.3332 13.5C13.3332 13.2238 13.1093 13 12.8332 13H3.1665Z" fill="currentColor"/>
</svg>