<svg xmlns="http://www.w3.org/2000/svg" width="24" height="24" viewBox="0 0 20 20">
<path fill="currentColor" d="M8.334 9A1.167 1.167 0 1 1 6 9a1.167 1.167 0 0 1 2.334 0M14 9a1.167 1.167 0 1 1-2.333 0A1.167 1.167 0 0 1 14 9M8.022 12.379c.515.616 1.195.939 1.984.939.793 0 1.47-.326 1.975-.947a.739.739 0 0 0-1.146-.932c-.226.277-.483.401-.829.401-.348 0-.613-.126-.85-.41a.739.739 0 0 0-1.134.949"></path>
  <path fill="currentColor" d="M1.667 10a8.333 8.333 0 1 1 16.667 0 8.333 8.333 0 0 1-16.667 0M10 16.832a6.833 6.833 0 1 0 0-13.667 6.833 6.833 0 0 0 0 13.667"></path>
</svg>