<svg xmlns="http://www.w3.org/2000/svg" width="24" height="24" viewBox="0 0 24 24">
  <path fill="currentColor" d="M20.768 7.934a4 4 0 0 0-1.825-2.153l-5-2.778-.055-.03a4 4 0 0 0-3.83.03l-5 2.778A4 4 0 0 0 3 9.278v7.646q0 .1.005.2A4 4 0 0 0 7 20.924h10q.1 0 .2-.005a4 4 0 0 0 3.8-3.995V9.243a4 4 0 0 0-.232-1.309m-9.776-3.452a2 2 0 0 1 2.016 0l5.2 3.033a2 2 0 0 1 .992 1.728v7.881a2 2 0 0 1-2 2H6.8a2 2 0 0 1-2-2V9.243a2 2 0 0 1 .992-1.728z"></path>
  <path fill="currentColor" fill-rule="evenodd" d="M9.72 14.883h-.001l-.002-.003-.003-.003-.004-.006-.007-.008-.001-.002.001.002z" clip-rule="evenodd"></path>
  <path fill="currentColor" d="m9.703 14.863-.001-.002zl.047.045a1.7 1.7 0 0 0 .33.222c.33.176.934.394 1.92.394s1.59-.218 1.92-.394a1.7 1.7 0 0 0 .377-.268.9.9 0 0 1 1.423 1.102l-.035.044-.056.065q-.067.076-.183.18a3.5 3.5 0 0 1-.679.465c-.606.324-1.503.606-2.767.606s-2.16-.282-2.767-.606c-.301-.16-.523-.327-.679-.465a2.5 2.5 0 0 1-.24-.245l-.034-.044a.9.9 0 0 1 1.423-1.101m.016.02-.002-.003-.003-.003-.004-.006-.007-.008z"></path>
</svg>