<svg xmlns="http://www.w3.org/2000/svg" width="24" height="24" viewBox="0 0 20 20">
  <path fill="currentColor" d="M2.863 4.32C2.5 5.033 2.5 5.966 2.5 7.833v4.334c0 1.867 0 2.8.363 3.513.32.627.83 1.137 1.457 1.457.713.363 1.646.363 3.513.363h4.334c1.867 0 2.8 0 3.513-.363a3.33 3.33 0 0 0 1.457-1.457c.363-.713.363-1.646.363-3.513V7.833c0-1.867 0-2.8-.363-3.513a3.33 3.33 0 0 0-1.457-1.457c-.713-.363-1.646-.363-3.513-.363H7.833c-1.867 0-2.8 0-3.513.363-.627.32-1.137.83-1.457 1.457M5.001 15.8a1.83 1.83 0 0 1-.731-.676l2.397-2.397L8.22 14.28a.75.75 0 0 0 1.06 0l4.053-4.053L16 12.893c-.003.57-.011.994-.04 1.34-.037.464-.103.656-.159.766A1.83 1.83 0 0 1 15 15.8c-.11.056-.302.122-.765.16-.48.039-1.11.04-2.067.04H7.833c-.958 0-1.586-.001-2.067-.04-.463-.038-.655-.104-.765-.16M7.833 4h4.334c.958 0 1.586.001 2.067.04.463.038.655.104.765.16.345.176.625.456.801.801.056.11.122.302.16.765.039.48.04 1.11.04 2.067v2.94l-2.136-2.137a.75.75 0 0 0-1.061 0L8.75 12.69l-1.553-1.553a.75.75 0 0 0-1.06 0L4.003 13.27A97 97 0 0 1 4 12.167V7.833c0-.958.001-1.586.04-2.067.038-.463.104-.655.16-.765.176-.345.456-.625.801-.801.11-.056.302-.122.765-.16.48-.039 1.11-.04 2.067-.04"/>
  <path  fill="currentColor" d="M7.917 6.875a1.042 1.042 0 1 0-2.084 0 1.042 1.042 0 0 0 2.084 0"/>
</svg>
