<svg xmlns="http://www.w3.org/2000/svg" width="24" height="24" viewBox="0 0 20 20">
  <g fill="currentColor">
    <path d="M7.917 6.875a1.042 1.042 0 1 0-2.084 0 1.042 1.042 0 0 0 2.084 0"/>
    <path fill-rule="evenodd" d="M2.5 7.833c0-1.867 0-2.8.363-3.513.32-.627.83-1.137 1.457-1.457C5.033 2.5 5.966 2.5 7.833 2.5h4.334c1.867 0 2.8 0 3.513.363.627.32 1.137.83 1.457 1.457.363.713.363 1.646.363 3.513v4.334l-.001.726h-1.5l-2.666-2.666L9.28 14.28a.75.75 0 0 1-1.06 0l-1.553-1.553-2.397 2.397c.176.288.429.522.731.676.11.056.302.122.765.16.48.039 1.11.04 2.067.04h1.334v1.5H7.833c-1.867 0-2.8 0-3.513-.363a3.33 3.33 0 0 1-1.457-1.457c-.363-.713-.363-1.646-.363-3.513zM12.167 4H7.833c-.958 0-1.586.001-2.067.04-.463.038-.655.104-.765.16A1.83 1.83 0 0 0 4.2 5c-.056.11-.122.302-.16.765-.039.48-.04 1.11-.04 2.067v4.334c0 .427 0 .79.004 1.102l2.132-2.133a.75.75 0 0 1 1.061 0L8.75 12.69l4.053-4.053a.75.75 0 0 1 1.06 0L16 10.773v-2.94c0-.958-.001-1.586-.04-2.067-.038-.463-.104-.655-.16-.765A1.83 1.83 0 0 0 15 4.2c-.11-.056-.302-.122-.765-.16-.48-.039-1.11-.04-2.067-.04" clip-rule="evenodd"/>
  </g>
  <path stroke="currentColor" stroke-linecap="round" stroke-linejoin="round" stroke-width="1.5" d="m12.203 16.613 1.69 1.69a1.04 1.04 0 0 0 1.473 0l3.848-3.847"/>
</svg>
