<svg t="1757692778784" class="icon" viewBox="0 0 1024 1024" version="1.1" xmlns="http://www.w3.org/2000/svg" p-id="23681" width="24" height="24"><path fill="currentColor" d="M512 128c212.074667 0 384 171.925333 384 384s-171.925333 384-384 384S128 724.074667 128 512 299.925333 128 512 128z m0 64c-176.725333 0-320 143.274667-320 320s143.274667 320 320 320 320-143.274667 320-320-143.274667-320-320-320z m0 160c88.362667 0 160 71.637333 160 160s-71.637333 160-160 160-160-71.637333-160-160 71.637333-160 160-160z m0 64c-53.02 0-96 42.98-96 96s42.98 96 96 96 96-42.98 96-96-42.98-96-96-96z m192-96c17.674667 0 32 14.325333 32 32s-14.325333 32-32 32-32-14.325333-32-32 14.325333-32 32-32z m-384 0c17.674667 0 32 14.325333 32 32s-14.325333 32-32 32-32-14.325333-32-32 14.325333-32 32-32z" p-id="23682"></path></svg>