<svg xmlns="http://www.w3.org/2000/svg" width="24" height="24" viewBox="0 0 16 16">
    <path 
        fill="currentColor" 
        fill-rule="evenodd" 
        stroke="currentColor"
        stroke-width="0.2"
        stroke-linecap="round"
        stroke-linejoin="round"
        d="M3.256 3.913a3.083 3.083 0 0 0-.003 4.397L8 12.998l4.743-4.684a3.085 3.085 0 0 0 .001-4.4c-.6-.593-1.4-.914-2.233-.914a3.17 3.17 0 0 0-1.91.635L8 4.087l-.601-.452A3.17 3.17 0 0 0 5.489 3c-.834 0-1.634.321-2.233.913m10.19 5.111-4.748 4.69a.996.996 0 0 1-1.397 0L2.549 9.02a4.083 4.083 0 0 1 .004-5.82A4.17 4.17 0 0 1 5.488 2c.907 0 1.787.29 2.512.835A4.17 4.17 0 0 1 10.51 2c1.093 0 2.146.422 2.936 1.202a4.085 4.085 0 0 1 0 5.822"
    />
</svg>