<svg t="1757775048146" class="icon" viewBox="0 0 1024 1024" version="1.1" xmlns="http://www.w3.org/2000/svg" p-id="21726" width="24" height="24"><path fill="currentColor" d="M577.472 247.424a33.856 33.856 0 0 1 61.952 0l66.56 152.32c3.392 7.808 9.6 14.016 17.472 17.408l152.32 66.56a33.856 33.856 0 0 1 0 62.016l-152.32 66.56a33.792 33.792 0 0 0-17.472 17.408l-66.56 152.32a33.856 33.856 0 0 1-61.952 0l-66.56-152.32a33.792 33.792 0 0 0-17.472-17.472l-152.32-66.56a33.856 33.856 0 0 1 0-61.952l152.32-66.56a33.856 33.856 0 0 0 17.472-17.408l66.56-152.32z" p-id="21727"></path><path fill="currentColor" d="M347.328 134.656a10.176 10.176 0 0 0-19.072 0l-16.192 43.904a10.176 10.176 0 0 1-6.016 6.016l-43.904 16.192a10.176 10.176 0 0 0 0 19.072l43.904 16.192c2.816 1.024 4.992 3.2 6.016 6.016l16.192 43.904a10.176 10.176 0 0 0 19.072 0l16.192-43.904a10.176 10.176 0 0 1 6.016-6.016l43.904-16.192a10.176 10.176 0 0 0 0-19.072l-43.904-16.192a10.176 10.176 0 0 1-6.016-6.016l-16.192-43.904zM282.88 618.368a13.504 13.504 0 0 0-25.472 0l-29.376 82.816a13.504 13.504 0 0 1-8.192 8.192l-82.816 29.376a13.504 13.504 0 0 0 0 25.472l82.816 29.376c3.84 1.344 6.848 4.352 8.192 8.192l29.376 82.816a13.504 13.504 0 0 0 25.472 0l29.376-82.816a13.504 13.504 0 0 1 8.192-8.192l82.816-29.376a13.504 13.504 0 0 0 0-25.472l-82.816-29.376a13.504 13.504 0 0 1-8.192-8.192L282.88 618.368z" p-id="21728"></path></svg>