<svg xmlns="http://www.w3.org/2000/svg" width="24" height="24" viewBox="0 0 24 24">
  <path fill="currentColor" d="M15.853 8.977c.022-.364.044-.637.06-.791a.75.75 0 1 1 1.491.146c-.013.136-.034.39-.055.736-.066 1.1-.08 2.252-.008 3.322.148 2.218.65 3.48 1.256 3.48 1.197 0 1.898-1.896 1.898-3.87a8.001 8.001 0 1 0-3.994 6.928.75.75 0 1 1 .753 1.296 9.44 9.44 0 0 1-4.76 1.276 9.5 9.5 0 1 1 9.5-9.5c0 2.758-.965 5.37-3.397 5.37-1.37 0-2.13-1.077-2.504-2.907a4.356 4.356 0 0 1-7.949-2.459 4.356 4.356 0 0 1 7.695-2.793zm-.5 3.027a2.855 2.855 0 1 0-5.713.002 2.855 2.855 0 0 0 5.714-.001z"></path>
</svg>