<svg xmlns="http://www.w3.org/2000/svg" width="24" height="24" viewBox="0 0 24 24">
  <path fill="currentColor" d="M20.16 13.9v-2.7c0-3.18-1.99-6.07-4.98-7.3C14.58 2.75 13.35 2 12 2s-2.58.75-3.18 1.9c-3 1.23-4.98 4.12-4.98 7.3v2.69C2.77 14.26 2 15.26 2 16.42c0 1.48 1.24 2.68 2.76 2.68H8.5c.28 1.64 1.73 2.9 3.5 2.9s3.22-1.26 3.5-2.9h3.74c1.52 0 2.76-1.2 2.76-2.68 0-1.16-.77-2.15-1.84-2.52M12 20.2c-.74 0-1.36-.46-1.6-1.1h3.19c-.23.64-.85 1.1-1.59 1.1m7.24-2.9H4.76c-.5 0-.9-.39-.9-.88 0-.48.41-.88.91-.88.51 0 .93-.4.93-.9V11.2c0-2.56 1.67-4.88 4.14-5.76.26-.09.46-.29.56-.54.24-.66.89-1.1 1.61-1.1s1.37.44 1.61 1.1c.09.25.3.45.56.54 2.48.88 4.14 3.19 4.14 5.76v3.44c0 .5.42.9.94.9.5 0 .9.39.9.88a.91.91 0 0 1-.92.88"></path>
</svg>