<svg t="1757745828962" class="icon" viewBox="0 0 1024 1024" version="1.1" xmlns="http://www.w3.org/2000/svg" p-id="2626" width="24" height="24"><path fill="currentColor" d="M784.444416 345.934848l7.419904 7.181312c6.457344 6.249472 5.987328 16.16896-0.781312 22.720512L467.772416 688.736256c-10.058752 9.735168-26.573824 9.30816-36.928512-0.712704l-140.93312-136.393728c-6.38976-6.18496-7.424-15.802368-1.790976-22.684672l13.170688-16.093184c5.398528-6.597632 15.49824-8.25344 22.63552-3.636224l113.998848 73.746432c6.012928 3.8912 16.362496 3.38432 21.976064-1.031168l301.232128-236.868608c6.770688-5.3248 17.37728-4.871168 23.31136 0.872448z" p-id="2627"></path><path d="M512 910.222336c219.931648 0 398.222336-178.290688 398.222336-398.222336 0-219.931648-178.290688-398.222336-398.222336-398.222336-219.931648 0-398.222336 178.290688-398.222336 398.222336 0 219.931648 178.290688 398.222336 398.222336 398.222336z m0 56.88832C260.64896 967.110656 56.889344 763.35104 56.889344 512S260.64896 56.889344 512 56.889344 967.110656 260.64896 967.110656 512 763.35104 967.110656 512 967.110656z" fill="currentColor" p-id="2628"></path></svg>