<svg xmlns="http://www.w3.org/2000/svg" width="24" height="24" viewBox="0 0 24 24">
<path fill="currentColor" d="M10.783 7.078a.91.91 0 0 1 .087-1.282l2.156-1.884a7.98 7.98 0 0 0-8.138 3.913 8.044 8.044 0 0 0 1.834 10.194.909.909 0 1 1-1.16 1.4 9.86 9.86 0 0 1-2.25-12.5A9.794 9.794 0 0 1 14.96 2.524c.773.264.966 1.27.354 1.803l-3.248 2.838a.91.91 0 0 1-1.283-.087M13.217 16.922a.91.91 0 0 1-.087 1.282l-2.156 1.884a7.98 7.98 0 0 0 8.138-3.913 8.044 8.044 0 0 0-1.834-10.194.909.909 0 1 1 1.16-1.4 9.86 9.86 0 0 1 2.25 12.5A9.794 9.794 0 0 1 9.04 21.476c-.772-.263-.965-1.265-.354-1.803l3.248-2.838a.91.91 0 0 1 1.283.087"></path>
</svg>