<svg xmlns="http://www.w3.org/2000/svg" width="24" height="24" viewBox="0 0 24 24">
<path fill="currentColor" d="M14.863 1.863a.9.9 0 0 1 1.273 0l4.5 4.5a.9.9 0 0 1 0 1.273l-4.5 4.5a.9.9 0 1 1-1.273-1.273l2.9-2.9c-2.266.143-3.919.534-5.195 1.257-1.62.918-2.763 2.449-3.723 5.087a.9.9 0 1 1-1.691-.615c1.04-2.862 2.397-4.83 4.527-6.038 1.648-.934 3.678-1.362 6.2-1.501l-3.018-3.017a.9.9 0 0 1 0-1.273M7 4.9A3.1 3.1 0 0 0 3.9 8v9A3.1 3.1 0 0 0 7 20.1h9a3.1 3.1 0 0 0 3.1-3.1v-4a.9.9 0 0 1 1.8 0v4a4.9 4.9 0 0 1-4.9 4.9H7A4.9 4.9 0 0 1 2.1 17V8A4.9 4.9 0 0 1 7 3.1h4a.9.9 0 1 1 0 1.8z"></path>
</svg>