<svg xmlns="http://www.w3.org/2000/svg" width="24" height="24" viewBox="0 0 24 24">
<path color="currentColor" d="M11.998 16.2a4.2 4.2 0 1 1 0-8.4 4.2 4.2 0 0 1 0 8.4m0 1.8a6 6 0 1 0 0-12 6 6 0 0 0 0 12M11.998.1a.9.9 0 0 1 .9.9v2a.9.9 0 0 1-1.8 0V1a.9.9 0 0 1 .9-.9M3.583 3.585a.9.9 0 0 1 1.273 0L6.27 4.999a.9.9 0 0 1-1.273 1.273L3.583 4.858a.9.9 0 0 1 0-1.273m16.83 0a.9.9 0 0 1 0 1.273l-1.415 1.414A.9.9 0 0 1 17.725 5l1.414-1.414a.9.9 0 0 1 1.273 0M.097 12a.9.9 0 0 1 .9-.9h2a.9.9 0 0 1 0 1.8h-2a.9.9 0 0 1-.9-.9m20 0a.9.9 0 0 1 .9-.9h2a.9.9 0 0 1 0 1.8h-2a.9.9 0 0 1-.9-.9M6.27 17.727a.9.9 0 0 1 0 1.273l-1.414 1.414a.9.9 0 1 1-1.273-1.273l1.414-1.414a.9.9 0 0 1 1.273 0m11.455 0a.9.9 0 0 1 1.273 0l1.414 1.414a.9.9 0 1 1-1.273 1.273L17.725 19a.9.9 0 0 1 0-1.273M11.998 20.1a.9.9 0 0 1 .9.9v2a.9.9 0 0 1-1.8 0v-2a.9.9 0 0 1 .9-.9"></path>
</svg>