<svg t="1757722620113" class="icon" viewBox="0 0 1024 1024" version="1.1" xmlns="http://www.w3.org/2000/svg" p-id="5340" width="24" height="24"><path fill="currentColor" d="M691.498667 375.168a42.666667 42.666667 0 0 1 0 60.330667l-192 192a42.666667 42.666667 0 0 1-60.330667 0l-85.333333-85.333334a42.666667 42.666667 0 1 1 60.330666-60.330666L469.333333 537.002667l161.834667-161.834667a42.666667 42.666667 0 0 1 60.330667 0z" p-id="5341"></path><path fill="currentColor" d="M252.970667 116.778667a128 128 0 0 1 164.352-64.64l72.490666 29.482666a42.666667 42.666667 0 0 0 30.72 0.554667l73.472-26.88a128 128 0 0 1 161.962667 70.485333l30.378667 72.106667a42.666667 42.666667 0 0 0 21.333333 22.144l70.997333 32.938667a128 128 0 0 1 64.64 164.352l-29.482666 72.490666a42.666667 42.666667 0 0 0-0.554667 30.72l26.88 73.472a128 128 0 0 1-70.485333 161.962667l-72.106667 30.378667a42.666667 42.666667 0 0 0-22.144 21.333333l-32.938667 70.997333a128 128 0 0 1-164.352 64.64l-72.490666-29.482666a42.666667 42.666667 0 0 0-30.72-0.554667l-73.472 26.88a128 128 0 0 1-161.962667-70.485333l-30.378667-72.106667a42.666667 42.666667 0 0 0-21.333333-22.144l-70.997333-32.938667a128 128 0 0 1-64.64-164.352l29.482666-72.490666a42.666667 42.666667 0 0 0 0.554667-30.72l-26.88-73.472a128 128 0 0 1 70.528-161.962667l72.106667-30.378667a42.666667 42.666667 0 0 0 22.101333-21.333333l32.938667-70.997333z m132.181333 14.378666a42.666667 42.666667 0 0 0-54.784 21.546667l-32.938667 70.997333a128 128 0 0 1-66.389333 64.042667l-72.106667 30.378667a42.666667 42.666667 0 0 0-23.466666 53.973333l26.88 73.472a128 128 0 0 1-1.706667 92.288l-29.44 72.448a42.666667 42.666667 0 0 0 21.504 54.784l70.997333 32.938667a128 128 0 0 1 64.042667 66.389333l30.378667 72.106667a42.666667 42.666667 0 0 0 53.973333 23.466666l73.472-26.88a128 128 0 0 1 92.288 1.706667l72.448 29.44a42.666667 42.666667 0 0 0 54.784-21.504l32.938667-70.954667a128 128 0 0 1 66.389333-64.085333l72.106667-30.378667a42.666667 42.666667 0 0 0 23.509333-53.973333l-26.88-73.472a128 128 0 0 1 1.621333-92.245333l29.525334-72.490667a42.666667 42.666667 0 0 0-21.546667-54.784l-70.954667-32.938667a128 128 0 0 1-64.085333-66.389333l-30.378667-72.106667a42.666667 42.666667 0 0 0-53.973333-23.466666l-73.472 26.88a128 128 0 0 1-92.245333-1.706667l-72.490667-29.44z" p-id="5342"></path></svg>